<svg width="1920" height="469" viewBox="0 0 1920 469" fill="none" xmlns="http://www.w3.org/2000/svg">
<rect y="-5" width="1920" height="313" fill="url(#paint0_linear)"/>
<path d="M1788.53 67.0172C1736.62 116.063 1685.67 76.6529 1662.31 49.6346C1638.95 22.6163 1652.03 18.2213 1703.94 -30.8248C1755.85 -79.871 1816.86 -97.7281 1840.22 -70.7098C1863.58 -43.6914 1840.43 17.971 1788.53 67.0172Z" fill="black"/>
<path d="M1788.53 67.0172C1736.62 116.063 1685.67 76.6529 1662.31 49.6346C1638.95 22.6163 1652.03 18.2213 1703.94 -30.8248C1755.85 -79.871 1816.86 -97.7281 1840.22 -70.7098C1863.58 -43.6914 1840.43 17.971 1788.53 67.0172Z" fill="black"/>
<path d="M1788.53 67.0172C1736.62 116.063 1685.67 76.6529 1662.31 49.6346C1638.95 22.6163 1652.03 18.2213 1703.94 -30.8248C1755.85 -79.871 1816.86 -97.7281 1840.22 -70.7098C1863.58 -43.6914 1840.43 17.971 1788.53 67.0172Z" fill="black"/>
<path d="M1701.53 30.9476C1703.61 102.17 1720.93 45.1207 1685.23 47.8787C1649.54 50.6366 1650.33 36.888 1575.31 21.6349C1573.24 -49.5871 1597.45 -90.2595 1633.15 -93.0174C1668.84 -95.7754 1699.46 -40.2743 1701.53 30.9476Z" fill="black"/>
<path d="M1701.53 30.9476C1703.61 102.17 1720.93 45.1207 1685.23 47.8787C1649.54 50.6366 1650.33 36.888 1575.31 21.6349C1573.24 -49.5871 1597.45 -90.2595 1633.15 -93.0174C1668.84 -95.7754 1699.46 -40.2743 1701.53 30.9476Z" fill="black"/>
<path d="M1701.53 30.9476C1703.61 102.17 1720.93 45.1207 1685.23 47.8787C1649.54 50.6366 1650.33 36.888 1575.31 21.6349C1573.24 -49.5871 1597.45 -90.2595 1633.15 -93.0174C1668.84 -95.7754 1699.46 -40.2743 1701.53 30.9476Z" fill="black"/>
<path d="M1503.67 -13.7559L1777.1 107.34C1812.96 123.219 1829.15 165.156 1813.27 201.009L1700.23 456.262L1426.79 335.166C1390.94 319.287 1374.75 277.35 1390.62 241.497L1503.67 -13.7559Z" stroke="black" stroke-width="18"/>
<path d="M1588.02 106.811L1508.88 285.511L1485.59 275.194L1564.73 96.4936L1588.02 106.811ZM1767.92 186.482L1758.29 208.243L1696.59 180.918L1627.08 337.857L1603.79 327.539L1673.29 170.601L1611.59 143.276L1621.23 121.515L1767.92 186.482Z" fill="black"/>
<defs>
<linearGradient id="paint0_linear" x1="608.5" y1="135.988" x2="1739.86" y2="158.253" gradientUnits="userSpaceOnUse">
<stop stop-color="#1D1D1D"/>
<stop offset="1" stop-color="#1D1D1D"/>
<stop offset="1" stop-color="#1D1D1D"/>
</linearGradient>
</defs>
</svg>
